<svg xmlns="http://www.w3.org/2000/svg" xmlns:xlink="http://www.w3.org/1999/xlink" width="300" zoomAndPan="magnify" viewBox="0 0 224.87999 93.749996" height="125" preserveAspectRatio="xMidYMid meet" version="1.0"><defs><g/><clipPath id="2750df9f6a"><path d="M 9.589844 2.476562 L 67 2.476562 L 67 49 L 9.589844 49 Z M 9.589844 2.476562 " clip-rule="nonzero"/></clipPath><clipPath id="7a25beb365"><path d="M 9.589844 45 L 67 45 L 67 91.023438 L 9.589844 91.023438 Z M 9.589844 45 " clip-rule="nonzero"/></clipPath></defs><g fill="#ffffff" fill-opacity="1"><g transform="translate(76.78803, 38.78093)"><g><path d="M 5.5 -25.40625 L 5.5 0 L 2.125 0 L 2.125 -25.40625 Z M 5.5 -25.40625 "/></g></g></g><g fill="#ffffff" fill-opacity="1"><g transform="translate(84.163526, 38.78093)"><g><path d="M 9.84375 0.421875 C 8.632812 0.421875 7.503906 0.195312 6.453125 -0.25 C 5.398438 -0.707031 4.476562 -1.332031 3.6875 -2.125 C 2.894531 -2.914062 2.269531 -3.84375 1.8125 -4.90625 C 1.363281 -5.96875 1.140625 -7.101562 1.140625 -8.3125 C 1.140625 -9.519531 1.351562 -10.65625 1.78125 -11.71875 C 2.21875 -12.789062 2.800781 -13.71875 3.53125 -14.5 C 4.257812 -15.289062 5.109375 -15.910156 6.078125 -16.359375 C 7.054688 -16.816406 8.101562 -17.046875 9.21875 -17.046875 C 10.351562 -17.046875 11.398438 -16.847656 12.359375 -16.453125 C 13.328125 -16.066406 14.164062 -15.453125 14.875 -14.609375 C 15.582031 -13.773438 16.132812 -12.710938 16.53125 -11.421875 C 16.925781 -10.140625 17.125 -8.601562 17.125 -6.8125 L 4.734375 -6.8125 C 4.890625 -6.21875 5.140625 -5.65625 5.484375 -5.125 C 5.835938 -4.601562 6.253906 -4.148438 6.734375 -3.765625 C 7.210938 -3.390625 7.742188 -3.097656 8.328125 -2.890625 C 8.921875 -2.679688 9.546875 -2.578125 10.203125 -2.578125 C 11.078125 -2.578125 11.890625 -2.738281 12.640625 -3.0625 C 13.398438 -3.382812 14.046875 -3.8125 14.578125 -4.34375 L 16.671875 -2.265625 C 15.859375 -1.453125 14.863281 -0.800781 13.6875 -0.3125 C 12.519531 0.175781 11.238281 0.421875 9.84375 0.421875 Z M 9.21875 -13.984375 C 8.6875 -13.984375 8.179688 -13.878906 7.703125 -13.671875 C 7.234375 -13.460938 6.796875 -13.171875 6.390625 -12.796875 C 5.984375 -12.429688 5.632812 -11.992188 5.34375 -11.484375 C 5.050781 -10.972656 4.835938 -10.414062 4.703125 -9.8125 L 13.5 -9.8125 C 13.457031 -10.363281 13.332031 -10.894531 13.125 -11.40625 C 12.914062 -11.914062 12.625 -12.363281 12.25 -12.75 C 11.875 -13.132812 11.4375 -13.4375 10.9375 -13.65625 C 10.445312 -13.875 9.875 -13.984375 9.21875 -13.984375 Z M 9.21875 -13.984375 "/></g></g></g><g fill="#ffffff" fill-opacity="1"><g transform="translate(102.602269, 38.78093)"><g><path d="M 1.953125 6.890625 L 1.953125 -16.671875 L 4.625 -16.671875 L 5.328125 -14.921875 C 5.992188 -15.597656 6.757812 -16.117188 7.625 -16.484375 C 8.5 -16.859375 9.484375 -17.046875 10.578125 -17.046875 C 11.734375 -17.046875 12.804688 -16.816406 13.796875 -16.359375 C 14.785156 -15.910156 15.640625 -15.289062 16.359375 -14.5 C 17.078125 -13.71875 17.640625 -12.789062 18.046875 -11.71875 C 18.453125 -10.65625 18.65625 -9.519531 18.65625 -8.3125 C 18.65625 -7.101562 18.453125 -5.96875 18.046875 -4.90625 C 17.640625 -3.84375 17.078125 -2.914062 16.359375 -2.125 C 15.640625 -1.332031 14.785156 -0.707031 13.796875 -0.25 C 12.804688 0.195312 11.734375 0.421875 10.578125 0.421875 C 9.441406 0.421875 8.441406 0.226562 7.578125 -0.15625 C 6.722656 -0.539062 5.972656 -1.09375 5.328125 -1.8125 L 5.328125 6.890625 Z M 10.296875 -13.984375 C 9.628906 -13.984375 8.992188 -13.875 8.390625 -13.65625 C 7.785156 -13.4375 7.253906 -13.085938 6.796875 -12.609375 C 6.347656 -12.140625 5.992188 -11.550781 5.734375 -10.84375 C 5.484375 -10.132812 5.359375 -9.289062 5.359375 -8.3125 C 5.359375 -7.269531 5.484375 -6.382812 5.734375 -5.65625 C 5.992188 -4.925781 6.347656 -4.332031 6.796875 -3.875 C 7.253906 -3.425781 7.785156 -3.097656 8.390625 -2.890625 C 8.992188 -2.679688 9.628906 -2.578125 10.296875 -2.578125 C 10.972656 -2.578125 11.613281 -2.726562 12.21875 -3.03125 C 12.820312 -3.332031 13.34375 -3.742188 13.78125 -4.265625 C 14.21875 -4.785156 14.5625 -5.394531 14.8125 -6.09375 C 15.070312 -6.789062 15.203125 -7.53125 15.203125 -8.3125 C 15.203125 -9.101562 15.070312 -9.847656 14.8125 -10.546875 C 14.5625 -11.242188 14.21875 -11.847656 13.78125 -12.359375 C 13.34375 -12.867188 12.820312 -13.265625 12.21875 -13.546875 C 11.613281 -13.835938 10.972656 -13.984375 10.296875 -13.984375 Z M 10.296875 -13.984375 "/></g></g></g><g fill="#ffffff" fill-opacity="1"><g transform="translate(122.223875, 38.78093)"><g><path d="M 9.703125 -3.484375 C 9.910156 -3.671875 10.097656 -3.878906 10.265625 -4.109375 C 10.429688 -4.335938 10.515625 -4.601562 10.515625 -4.90625 C 10.515625 -5.28125 10.378906 -5.59375 10.109375 -5.84375 C 9.835938 -6.101562 9.507812 -6.316406 9.125 -6.484375 C 8.75 -6.660156 8.351562 -6.796875 7.9375 -6.890625 C 7.519531 -6.984375 7.171875 -7.066406 6.890625 -7.140625 C 6.117188 -7.316406 5.394531 -7.539062 4.71875 -7.8125 C 4.050781 -8.082031 3.46875 -8.40625 2.96875 -8.78125 C 2.476562 -9.164062 2.085938 -9.617188 1.796875 -10.140625 C 1.503906 -10.660156 1.359375 -11.28125 1.359375 -12 C 1.359375 -12.675781 1.519531 -13.304688 1.84375 -13.890625 C 2.164062 -14.484375 2.597656 -15.003906 3.140625 -15.453125 C 3.691406 -15.910156 4.332031 -16.273438 5.0625 -16.546875 C 5.789062 -16.816406 6.5625 -16.953125 7.375 -16.953125 C 8.09375 -16.953125 8.773438 -16.84375 9.421875 -16.625 C 10.078125 -16.414062 10.664062 -16.128906 11.1875 -15.765625 C 11.707031 -15.410156 12.144531 -14.976562 12.5 -14.46875 C 12.863281 -13.957031 13.101562 -13.390625 13.21875 -12.765625 L 10.203125 -12.046875 C 10.054688 -12.597656 9.75 -13.054688 9.28125 -13.421875 C 8.820312 -13.796875 8.1875 -13.984375 7.375 -13.984375 C 7.09375 -13.984375 6.800781 -13.941406 6.5 -13.859375 C 6.195312 -13.785156 5.921875 -13.664062 5.671875 -13.5 C 5.421875 -13.332031 5.207031 -13.132812 5.03125 -12.90625 C 4.851562 -12.675781 4.765625 -12.410156 4.765625 -12.109375 C 4.765625 -11.785156 4.863281 -11.503906 5.0625 -11.265625 C 5.257812 -11.035156 5.492188 -10.84375 5.765625 -10.6875 C 6.046875 -10.539062 6.347656 -10.421875 6.671875 -10.328125 C 7.003906 -10.242188 7.304688 -10.164062 7.578125 -10.09375 C 8.816406 -9.789062 9.835938 -9.460938 10.640625 -9.109375 C 11.453125 -8.765625 12.101562 -8.382812 12.59375 -7.96875 C 13.082031 -7.550781 13.425781 -7.09375 13.625 -6.59375 C 13.820312 -6.09375 13.921875 -5.53125 13.921875 -4.90625 C 13.921875 -4.164062 13.75 -3.46875 13.40625 -2.8125 C 13.070312 -2.164062 12.609375 -1.601562 12.015625 -1.125 C 11.429688 -0.65625 10.726562 -0.285156 9.90625 -0.015625 C 9.082031 0.242188 8.191406 0.375 7.234375 0.375 C 5.796875 0.375 4.515625 0.0234375 3.390625 -0.671875 C 2.265625 -1.378906 1.503906 -2.328125 1.109375 -3.515625 L 3.96875 -4.796875 C 4.34375 -3.984375 4.816406 -3.429688 5.390625 -3.140625 C 5.972656 -2.859375 6.632812 -2.71875 7.375 -2.71875 C 8.300781 -2.71875 9.078125 -2.972656 9.703125 -3.484375 Z M 9.703125 -3.484375 "/></g></g></g><g fill="#ffffff" fill-opacity="1"><g transform="translate(137.183606, 38.78093)"><g><path d="M 5.46875 -3 L 14.609375 -3 L 14.609375 0 L 0.734375 0 L 0.734375 -2.40625 L 9.8125 -13.640625 L 1.46875 -13.640625 L 1.46875 -16.671875 L 14.46875 -16.671875 L 14.46875 -14.125 Z M 5.46875 -3 "/></g></g></g><g fill="#ffffff" fill-opacity="1"><g transform="translate(152.87393, 38.78093)"><g><path d="M 7.40625 -1.875 L 0.34375 -16.671875 L 4.109375 -16.671875 L 9.25 -5.84375 L 14.296875 -16.671875 L 18.03125 -16.671875 L 7.265625 6.640625 L 3.546875 6.640625 Z M 7.40625 -1.875 "/></g></g></g><g fill="#ffffff" fill-opacity="1"><g transform="translate(76.78803, 75.085976)"><g><path d="M 17.75 -16.671875 L 17.75 0 L 14.890625 0 L 14.375 -1.90625 C 13.789062 -1.144531 13.046875 -0.566406 12.140625 -0.171875 C 11.234375 0.222656 10.316406 0.421875 9.390625 0.421875 C 8.234375 0.421875 7.148438 0.195312 6.140625 -0.25 C 5.128906 -0.707031 4.242188 -1.332031 3.484375 -2.125 C 2.734375 -2.914062 2.140625 -3.84375 1.703125 -4.90625 C 1.265625 -5.96875 1.046875 -7.101562 1.046875 -8.3125 C 1.046875 -9.519531 1.265625 -10.65625 1.703125 -11.71875 C 2.140625 -12.789062 2.734375 -13.71875 3.484375 -14.5 C 4.242188 -15.289062 5.128906 -15.910156 6.140625 -16.359375 C 7.148438 -16.816406 8.234375 -17.046875 9.390625 -17.046875 C 10.316406 -17.046875 11.207031 -16.863281 12.0625 -16.5 C 12.925781 -16.144531 13.695312 -15.585938 14.375 -14.828125 L 14.890625 -16.671875 Z M 9.390625 -2.578125 C 10.066406 -2.578125 10.707031 -2.726562 11.3125 -3.03125 C 11.914062 -3.332031 12.4375 -3.742188 12.875 -4.265625 C 13.3125 -4.785156 13.65625 -5.394531 13.90625 -6.09375 C 14.164062 -6.789062 14.296875 -7.53125 14.296875 -8.3125 C 14.296875 -9.101562 14.164062 -9.847656 13.90625 -10.546875 C 13.65625 -11.242188 13.3125 -11.851562 12.875 -12.375 C 12.4375 -12.894531 11.914062 -13.304688 11.3125 -13.609375 C 10.707031 -13.910156 10.066406 -14.0625 9.390625 -14.0625 C 8.722656 -14.0625 8.085938 -13.910156 7.484375 -13.609375 C 6.878906 -13.304688 6.351562 -12.894531 5.90625 -12.375 C 5.46875 -11.851562 5.117188 -11.242188 4.859375 -10.546875 C 4.609375 -9.847656 4.484375 -9.101562 4.484375 -8.3125 C 4.484375 -7.53125 4.609375 -6.789062 4.859375 -6.09375 C 5.117188 -5.394531 5.46875 -4.785156 5.90625 -4.265625 C 6.351562 -3.742188 6.878906 -3.332031 7.484375 -3.03125 C 8.085938 -2.726562 8.722656 -2.578125 9.390625 -2.578125 Z M 9.390625 -2.578125 "/></g></g></g><g fill="#ffffff" fill-opacity="1"><g transform="translate(96.026944, 75.085976)"><g><path d="M 5.25 0 L 1.875 0 L 1.875 -16.671875 L 4.5625 -16.671875 L 5.25 -15.203125 C 5.8125 -15.734375 6.484375 -16.171875 7.265625 -16.515625 C 8.054688 -16.867188 8.914062 -17.046875 9.84375 -17.046875 C 10.445312 -17.046875 11.128906 -16.953125 11.890625 -16.765625 C 12.660156 -16.585938 13.375 -16.242188 14.03125 -15.734375 C 14.695312 -15.222656 15.253906 -14.515625 15.703125 -13.609375 C 16.160156 -12.703125 16.390625 -11.53125 16.390625 -10.09375 L 16.390625 0 L 13.1875 0 L 13.1875 -10.125 C 13.1875 -10.84375 13.078125 -11.453125 12.859375 -11.953125 C 12.640625 -12.453125 12.347656 -12.851562 11.984375 -13.15625 C 11.628906 -13.457031 11.222656 -13.671875 10.765625 -13.796875 C 10.316406 -13.921875 9.847656 -13.984375 9.359375 -13.984375 C 8.984375 -13.984375 8.554688 -13.914062 8.078125 -13.78125 C 7.609375 -13.644531 7.164062 -13.414062 6.75 -13.09375 C 6.332031 -12.78125 5.976562 -12.382812 5.6875 -11.90625 C 5.394531 -11.4375 5.25 -10.851562 5.25 -10.15625 Z M 5.25 0 "/></g></g></g><g fill="#ffffff" fill-opacity="1"><g transform="translate(114.604842, 75.085976)"><g><path d="M 9.53125 -0.828125 C 8.375 -0.828125 7.304688 -1.039062 6.328125 -1.46875 C 5.359375 -1.90625 4.515625 -2.5 3.796875 -3.25 C 3.078125 -4.007812 2.515625 -4.878906 2.109375 -5.859375 C 1.703125 -6.847656 1.5 -7.898438 1.5 -9.015625 C 1.5 -10.128906 1.703125 -11.171875 2.109375 -12.140625 C 2.515625 -13.117188 3.078125 -13.972656 3.796875 -14.703125 C 4.515625 -15.429688 5.359375 -16.003906 6.328125 -16.421875 C 7.304688 -16.835938 8.375 -17.046875 9.53125 -17.046875 C 10.695312 -17.046875 11.707031 -16.867188 12.5625 -16.515625 C 13.414062 -16.171875 14.171875 -15.675781 14.828125 -15.03125 L 15.515625 -16.671875 L 18.15625 -16.671875 C 18.15625 -16.597656 18.15625 -16.507812 18.15625 -16.40625 C 18.15625 -16.300781 18.15625 -16.097656 18.15625 -15.796875 C 18.15625 -15.492188 18.15625 -15.0625 18.15625 -14.5 C 18.15625 -13.945312 18.15625 -13.179688 18.15625 -12.203125 C 18.15625 -11.234375 18.160156 -10.019531 18.171875 -8.5625 C 18.191406 -7.101562 18.203125 -5.328125 18.203125 -3.234375 C 18.203125 -2.535156 18.175781 -1.851562 18.125 -1.1875 C 18.082031 -0.53125 17.984375 0.101562 17.828125 0.71875 C 17.679688 1.332031 17.460938 1.921875 17.171875 2.484375 C 16.878906 3.054688 16.488281 3.609375 16 4.140625 C 15.070312 5.117188 14.019531 5.773438 12.84375 6.109375 C 11.675781 6.441406 10.445312 6.609375 9.15625 6.609375 C 8.039062 6.609375 6.988281 6.46875 6 6.1875 C 5.019531 5.914062 4.132812 5.546875 3.34375 5.078125 L 3.34375 1.328125 C 3.800781 1.992188 4.523438 2.535156 5.515625 2.953125 C 6.503906 3.367188 7.625 3.578125 8.875 3.578125 C 9.707031 3.578125 10.484375 3.46875 11.203125 3.25 C 11.921875 3.03125 12.546875 2.691406 13.078125 2.234375 C 13.617188 1.785156 14.046875 1.203125 14.359375 0.484375 C 14.671875 -0.234375 14.828125 -1.09375 14.828125 -2.09375 L 14.828125 -2.75 C 14.546875 -2.488281 14.203125 -2.242188 13.796875 -2.015625 C 13.390625 -1.785156 12.945312 -1.582031 12.46875 -1.40625 C 12 -1.226562 11.507812 -1.085938 11 -0.984375 C 10.488281 -0.878906 10 -0.828125 9.53125 -0.828125 Z M 9.84375 -13.984375 C 9.175781 -13.984375 8.539062 -13.851562 7.9375 -13.59375 C 7.332031 -13.34375 6.800781 -12.988281 6.34375 -12.53125 C 5.894531 -12.082031 5.539062 -11.554688 5.28125 -10.953125 C 5.03125 -10.359375 4.90625 -9.710938 4.90625 -9.015625 C 4.90625 -8.316406 5.03125 -7.660156 5.28125 -7.046875 C 5.539062 -6.429688 5.894531 -5.894531 6.34375 -5.4375 C 6.800781 -4.988281 7.332031 -4.628906 7.9375 -4.359375 C 8.539062 -4.097656 9.175781 -3.96875 9.84375 -3.96875 C 10.519531 -3.96875 11.160156 -4.070312 11.765625 -4.28125 C 12.367188 -4.488281 12.890625 -4.800781 13.328125 -5.21875 C 13.765625 -5.632812 14.109375 -6.15625 14.359375 -6.78125 C 14.617188 -7.40625 14.75 -8.148438 14.75 -9.015625 C 14.75 -9.921875 14.617188 -10.691406 14.359375 -11.328125 C 14.109375 -11.960938 13.765625 -12.476562 13.328125 -12.875 C 12.890625 -13.269531 12.367188 -13.550781 11.765625 -13.71875 C 11.160156 -13.894531 10.519531 -13.984375 9.84375 -13.984375 Z M 9.84375 -13.984375 "/></g></g></g><g fill="#ffffff" fill-opacity="1"><g transform="translate(135.165781, 75.085976)"><g><path d="M 5.46875 0 L 2.09375 0 L 2.09375 -16.671875 L 5.421875 -16.671875 Z M 3.765625 -20.28125 C 3.160156 -20.28125 2.644531 -20.492188 2.21875 -20.921875 C 1.800781 -21.359375 1.59375 -21.878906 1.59375 -22.484375 C 1.59375 -23.085938 1.800781 -23.597656 2.21875 -24.015625 C 2.644531 -24.429688 3.160156 -24.640625 3.765625 -24.640625 C 4.359375 -24.640625 4.863281 -24.429688 5.28125 -24.015625 C 5.707031 -23.597656 5.921875 -23.085938 5.921875 -22.484375 C 5.921875 -21.878906 5.707031 -21.359375 5.28125 -20.921875 C 4.863281 -20.492188 4.359375 -20.28125 3.765625 -20.28125 Z M 3.765625 -20.28125 "/></g></g></g><g fill="#ffffff" fill-opacity="1"><g transform="translate(142.471699, 75.085976)"><g><path d="M 9.84375 0.421875 C 8.632812 0.421875 7.503906 0.195312 6.453125 -0.25 C 5.398438 -0.707031 4.476562 -1.332031 3.6875 -2.125 C 2.894531 -2.914062 2.269531 -3.84375 1.8125 -4.90625 C 1.363281 -5.96875 1.140625 -7.101562 1.140625 -8.3125 C 1.140625 -9.519531 1.351562 -10.65625 1.78125 -11.71875 C 2.21875 -12.789062 2.800781 -13.71875 3.53125 -14.5 C 4.257812 -15.289062 5.109375 -15.910156 6.078125 -16.359375 C 7.054688 -16.816406 8.101562 -17.046875 9.21875 -17.046875 C 10.351562 -17.046875 11.398438 -16.847656 12.359375 -16.453125 C 13.328125 -16.066406 14.164062 -15.453125 14.875 -14.609375 C 15.582031 -13.773438 16.132812 -12.710938 16.53125 -11.421875 C 16.925781 -10.140625 17.125 -8.601562 17.125 -6.8125 L 4.734375 -6.8125 C 4.890625 -6.21875 5.140625 -5.65625 5.484375 -5.125 C 5.835938 -4.601562 6.253906 -4.148438 6.734375 -3.765625 C 7.210938 -3.390625 7.742188 -3.097656 8.328125 -2.890625 C 8.921875 -2.679688 9.546875 -2.578125 10.203125 -2.578125 C 11.078125 -2.578125 11.890625 -2.738281 12.640625 -3.0625 C 13.398438 -3.382812 14.046875 -3.8125 14.578125 -4.34375 L 16.671875 -2.265625 C 15.859375 -1.453125 14.863281 -0.800781 13.6875 -0.3125 C 12.519531 0.175781 11.238281 0.421875 9.84375 0.421875 Z M 9.21875 -13.984375 C 8.6875 -13.984375 8.179688 -13.878906 7.703125 -13.671875 C 7.234375 -13.460938 6.796875 -13.171875 6.390625 -12.796875 C 5.984375 -12.429688 5.632812 -11.992188 5.34375 -11.484375 C 5.050781 -10.972656 4.835938 -10.414062 4.703125 -9.8125 L 13.5 -9.8125 C 13.457031 -10.363281 13.332031 -10.894531 13.125 -11.40625 C 12.914062 -11.914062 12.625 -12.363281 12.25 -12.75 C 11.875 -13.132812 11.4375 -13.4375 10.9375 -13.65625 C 10.445312 -13.875 9.875 -13.984375 9.21875 -13.984375 Z M 9.21875 -13.984375 "/></g></g></g><g fill="#ffffff" fill-opacity="1"><g transform="translate(160.910443, 75.085976)"><g><path d="M 5.5 -25.40625 L 5.5 0 L 2.125 0 L 2.125 -25.40625 Z M 5.5 -25.40625 "/></g></g></g><g fill="#ffffff" fill-opacity="1"><g transform="translate(168.285939, 75.085976)"><g><path d="M 9.703125 -3.484375 C 9.910156 -3.671875 10.097656 -3.878906 10.265625 -4.109375 C 10.429688 -4.335938 10.515625 -4.601562 10.515625 -4.90625 C 10.515625 -5.28125 10.378906 -5.59375 10.109375 -5.84375 C 9.835938 -6.101562 9.507812 -6.316406 9.125 -6.484375 C 8.75 -6.660156 8.351562 -6.796875 7.9375 -6.890625 C 7.519531 -6.984375 7.171875 -7.066406 6.890625 -7.140625 C 6.117188 -7.316406 5.394531 -7.539062 4.71875 -7.8125 C 4.050781 -8.082031 3.46875 -8.40625 2.96875 -8.78125 C 2.476562 -9.164062 2.085938 -9.617188 1.796875 -10.140625 C 1.503906 -10.660156 1.359375 -11.28125 1.359375 -12 C 1.359375 -12.675781 1.519531 -13.304688 1.84375 -13.890625 C 2.164062 -14.484375 2.597656 -15.003906 3.140625 -15.453125 C 3.691406 -15.910156 4.332031 -16.273438 5.0625 -16.546875 C 5.789062 -16.816406 6.5625 -16.953125 7.375 -16.953125 C 8.09375 -16.953125 8.773438 -16.84375 9.421875 -16.625 C 10.078125 -16.414062 10.664062 -16.128906 11.1875 -15.765625 C 11.707031 -15.410156 12.144531 -14.976562 12.5 -14.46875 C 12.863281 -13.957031 13.101562 -13.390625 13.21875 -12.765625 L 10.203125 -12.046875 C 10.054688 -12.597656 9.75 -13.054688 9.28125 -13.421875 C 8.820312 -13.796875 8.1875 -13.984375 7.375 -13.984375 C 7.09375 -13.984375 6.800781 -13.941406 6.5 -13.859375 C 6.195312 -13.785156 5.921875 -13.664062 5.671875 -13.5 C 5.421875 -13.332031 5.207031 -13.132812 5.03125 -12.90625 C 4.851562 -12.675781 4.765625 -12.410156 4.765625 -12.109375 C 4.765625 -11.785156 4.863281 -11.503906 5.0625 -11.265625 C 5.257812 -11.035156 5.492188 -10.84375 5.765625 -10.6875 C 6.046875 -10.539062 6.347656 -10.421875 6.671875 -10.328125 C 7.003906 -10.242188 7.304688 -10.164062 7.578125 -10.09375 C 8.816406 -9.789062 9.835938 -9.460938 10.640625 -9.109375 C 11.453125 -8.765625 12.101562 -8.382812 12.59375 -7.96875 C 13.082031 -7.550781 13.425781 -7.09375 13.625 -6.59375 C 13.820312 -6.09375 13.921875 -5.53125 13.921875 -4.90625 C 13.921875 -4.164062 13.75 -3.46875 13.40625 -2.8125 C 13.070312 -2.164062 12.609375 -1.601562 12.015625 -1.125 C 11.429688 -0.65625 10.726562 -0.285156 9.90625 -0.015625 C 9.082031 0.242188 8.191406 0.375 7.234375 0.375 C 5.796875 0.375 4.515625 0.0234375 3.390625 -0.671875 C 2.265625 -1.378906 1.503906 -2.328125 1.109375 -3.515625 L 3.96875 -4.796875 C 4.34375 -3.984375 4.816406 -3.429688 5.390625 -3.140625 C 5.972656 -2.859375 6.632812 -2.71875 7.375 -2.71875 C 8.300781 -2.71875 9.078125 -2.972656 9.703125 -3.484375 Z M 9.703125 -3.484375 "/></g></g></g><g fill="#ffffff" fill-opacity="1"><g transform="translate(183.245669, 75.085976)"><g><path d="M 5.5 0 L 2.125 0 L 2.125 -25.40625 L 5.5 -25.40625 L 5.5 -9.8125 L 12.046875 -16.671875 L 16.21875 -16.671875 L 9.8125 -9.953125 L 16.703125 0 L 12.875 0 L 7.625 -7.65625 L 5.5 -5.421875 Z M 5.5 0 "/></g></g></g><g fill="#ffffff" fill-opacity="1"><g transform="translate(200.640711, 75.085976)"><g><path d="M 5.46875 0 L 2.09375 0 L 2.09375 -16.671875 L 5.421875 -16.671875 Z M 3.765625 -20.28125 C 3.160156 -20.28125 2.644531 -20.492188 2.21875 -20.921875 C 1.800781 -21.359375 1.59375 -21.878906 1.59375 -22.484375 C 1.59375 -23.085938 1.800781 -23.597656 2.21875 -24.015625 C 2.644531 -24.429688 3.160156 -24.640625 3.765625 -24.640625 C 4.359375 -24.640625 4.863281 -24.429688 5.28125 -24.015625 C 5.707031 -23.597656 5.921875 -23.085938 5.921875 -22.484375 C 5.921875 -21.878906 5.707031 -21.359375 5.28125 -20.921875 C 4.863281 -20.492188 4.359375 -20.28125 3.765625 -20.28125 Z M 3.765625 -20.28125 "/></g></g></g><g clip-path="url(#2750df9f6a)"><path fill="#ffffff" d="M 13.019531 35.039062 L 24.703125 35.039062 C 25.644531 35.039062 26.40625 35.800781 26.40625 36.738281 L 26.40625 41.757812 L 31.074219 35.703125 C 31.394531 35.28125 31.890625 35.039062 32.421875 35.039062 L 63.484375 35.039062 L 63.484375 5.875 L 13.019531 5.875 Z M 24.703125 48.449219 C 24.519531 48.449219 24.335938 48.421875 24.15625 48.359375 C 23.464844 48.125 23.003906 47.476562 23.003906 46.75 L 23.003906 38.441406 L 11.320312 38.441406 C 10.378906 38.441406 9.617188 37.679688 9.617188 36.738281 L 9.617188 4.175781 C 9.617188 3.234375 10.378906 2.472656 11.320312 2.472656 L 65.1875 2.472656 C 66.125 2.472656 66.886719 3.234375 66.886719 4.175781 L 66.886719 36.738281 C 66.886719 37.679688 66.125 38.441406 65.1875 38.441406 L 33.257812 38.441406 L 26.050781 47.789062 C 25.722656 48.214844 25.21875 48.449219 24.703125 48.449219 " fill-opacity="1" fill-rule="nonzero"/></g><g clip-path="url(#7a25beb365)"><path fill="#ffffff" d="M 13.019531 87.625 L 63.484375 87.625 L 63.484375 58.460938 L 51.800781 58.460938 C 50.859375 58.460938 50.101562 57.703125 50.101562 56.761719 L 50.101562 51.742188 L 45.433594 57.800781 C 45.109375 58.21875 44.613281 58.460938 44.085938 58.460938 L 13.019531 58.460938 Z M 65.1875 91.027344 L 11.320312 91.027344 C 10.378906 91.027344 9.617188 90.265625 9.617188 89.324219 L 9.617188 56.761719 C 9.617188 55.820312 10.378906 55.058594 11.320312 55.058594 L 43.25 55.058594 L 50.453125 45.710938 C 50.898438 45.136719 51.664062 44.90625 52.347656 45.140625 C 53.039062 45.375 53.5 46.023438 53.5 46.75 L 53.5 55.058594 L 65.1875 55.058594 C 66.125 55.058594 66.886719 55.820312 66.886719 56.761719 L 66.886719 89.324219 C 66.886719 90.265625 66.125 91.027344 65.1875 91.027344 " fill-opacity="1" fill-rule="nonzero"/></g></svg>